<?xml version="1.0" standalone="no"?>
<!DOCTYPE svg PUBLIC "-//W3C//DTD SVG 20010904//EN"
 "http://www.w3.org/TR/2001/REC-SVG-20010904/DTD/svg10.dtd">
<svg version="1.0" xmlns="http://www.w3.org/2000/svg"
 width="403.000000pt" height="402.000000pt" viewBox="0 0 403.000000 402.000000"
 preserveAspectRatio="xMidYMid meet">

<g transform="translate(0.000000,402.000000) scale(0.100000,-0.100000)"
fill="#000000" stroke="none">
<path d="M0 2010 l0 -2010 2015 0 2015 0 0 2010 0 2010 -2015 0 -2015 0 0
-2010z m1725 1229 c4 -11 22 -23 43 -29 20 -5 52 -19 70 -30 40 -24 42 -25 42
-2 1 14 5 12 24 -10 21 -23 26 -25 36 -12 8 9 11 30 7 59 -7 49 -3 53 29 27
41 -33 57 -70 57 -130 0 -31 1 -46 4 -32 9 47 26 48 19 1 -6 -42 -5 -44 60
-117 37 -41 64 -77 62 -80 -11 -10 -39 10 -59 43 -28 45 -34 37 -9 -12 31 -61
25 -87 -22 -99 -23 -5 -28 -3 -28 11 0 10 -5 36 -11 58 l-11 40 -23 -78 c-24
-84 -39 -112 -30 -56 l6 34 -15 -32 c-8 -18 -20 -33 -25 -33 -6 0 -30 -15 -55
-32 -40 -30 -44 -37 -51 -90 -4 -31 -4 -62 0 -67 3 -6 -7 -16 -22 -23 -15 -7
-40 -22 -55 -34 l-26 -21 40 -27 c53 -35 83 -32 84 9 0 36 31 98 44 90 11 -7
14 20 11 74 -2 18 1 31 6 28 5 -3 9 11 8 32 -1 33 1 38 19 37 47 -4 76 -19 88
-47 15 -34 24 -37 30 -11 4 13 18 21 41 25 50 8 63 23 59 65 -5 38 13 58 35
40 7 -5 18 -8 25 -5 7 2 15 4 18 4 3 0 15 5 28 12 17 9 32 9 63 1 38 -11 42
-10 58 12 9 13 21 63 28 111 15 108 62 207 98 207 13 0 26 -7 29 -16 9 -23 7
-83 -5 -134 -18 -78 -38 -230 -33 -244 7 -18 40 -26 52 -14 12 12 32 2 32 -16
0 -7 8 -20 18 -30 18 -15 21 -13 59 41 22 32 43 65 47 73 18 40 74 119 79 113
4 -3 7 0 7 8 0 8 14 30 30 49 32 38 40 35 14 -5 -9 -13 -14 -30 -12 -37 3 -8
11 -1 21 17 15 27 16 28 17 7 0 -12 -16 -47 -37 -77 l-36 -55 21 -23 c31 -33
27 -64 -14 -125 -40 -60 -41 -97 -1 -68 44 32 117 66 141 66 48 0 39 -48 -21
-109 -35 -36 -31 -55 12 -47 22 4 35 3 35 -4 0 -5 -4 -10 -10 -10 -5 0 -10
-14 -10 -31 0 -16 -4 -28 -9 -24 -6 3 -9 -4 -8 -15 1 -11 5 -20 9 -20 4 0 8
-8 8 -18 0 -31 49 -24 300 45 112 30 189 42 164 25 -6 -4 -14 -17 -18 -30 -4
-12 -12 -20 -17 -16 -6 3 -16 -1 -22 -10 -7 -8 -47 -22 -89 -31 -43 -9 -104
-24 -135 -34 -87 -28 -141 -35 -158 -21 -12 10 -15 7 -21 -15 -4 -15 -1 -37 6
-50 7 -14 13 -63 14 -118 0 -76 -3 -99 -16 -114 -9 -10 -20 -31 -24 -47 -4
-16 -18 -45 -31 -64 -36 -55 -39 -49 65 -140 66 -58 86 -102 59 -130 -24 -23
-69 1 -125 65 -25 29 -52 53 -59 53 -16 0 -17 -12 -1 -28 21 -21 -10 -60 -65
-80 -40 -15 -58 -17 -92 -9 -23 5 -54 7 -69 3 -26 -6 -26 -7 -26 -107 0 -55
-4 -108 -10 -118 -13 -25 -39 -34 -56 -20 -11 9 -16 5 -26 -16 -10 -22 -17
-26 -40 -21 -26 5 -28 3 -28 -27 -1 -133 -7 -207 -19 -221 -7 -8 -10 -20 -6
-26 9 -14 -8 -13 -24 2 -10 11 -12 10 -9 -2 2 -8 7 -18 13 -22 5 -4 6 -10 2
-14 -14 -14 -36 31 -43 91 -4 33 -7 111 -6 173 l2 114 -28 -7 c-39 -8 -58 17
-66 85 -10 95 -18 130 -28 130 -6 0 -8 -7 -4 -15 3 -8 1 -15 -4 -15 -6 0 -10
5 -10 10 0 19 -32 10 -37 -10 -3 -11 -9 -20 -14 -20 -13 0 -11 24 4 39 10 11
9 13 -5 8 -12 -4 -15 -2 -11 9 8 22 -5 17 -36 -14 -16 -15 -53 -48 -83 -74
-37 -32 -59 -59 -68 -88 -22 -66 -86 -95 -107 -48 -9 20 -10 20 -22 -10 -8
-18 -18 -32 -23 -32 -5 0 -8 -8 -7 -17 4 -45 -2 -93 -12 -93 -8 0 -10 17 -7
50 3 28 1 50 -3 50 -5 0 -9 -22 -9 -50 0 -33 -4 -50 -12 -51 -7 -1 1 -4 17 -8
27 -5 31 -12 42 -61 16 -81 15 -195 -3 -264 -44 -165 -76 -259 -84 -246 -6 10
-10 8 -14 -11 -22 -89 -107 -423 -120 -466 -9 -29 -23 -77 -32 -105 -9 -29
-18 -63 -21 -75 -5 -22 -10 -23 -100 -23 -94 0 -95 0 -90 22 22 87 37 219 37
325 0 104 -3 131 -21 170 -19 41 -20 52 -9 111 13 74 20 91 55 126 33 33 33
83 0 174 -29 82 -32 151 -8 236 24 87 38 106 82 107 l36 1 -40 13 c-22 7 -32
13 -22 14 10 1 17 9 17 21 0 25 51 39 150 42 l75 1 -55 7 c-30 4 -49 7 -41 8
8 1 12 4 9 7 -3 3 -34 -4 -69 -15 -35 -11 -99 -23 -142 -26 -72 -6 -79 -5
-102 16 -34 32 -35 80 -1 80 43 0 88 12 75 20 -10 7 -10 15 1 39 15 37 17 37
47 9 13 -12 23 -17 23 -11 0 5 -9 18 -20 28 -32 29 -151 215 -145 225 3 6 0 8
-7 5 -7 -2 -33 20 -58 49 -54 65 -68 116 -69 263 -1 116 4 136 49 180 41 40
93 50 146 28 51 -21 131 -100 145 -143 6 -18 13 -31 15 -29 3 3 -3 23 -12 46
-20 51 -105 128 -157 142 -31 8 -36 13 -27 24 24 29 158 -31 215 -97 27 -32
31 -34 15 -10 -33 49 -17 51 33 5 24 -23 55 -46 68 -52 22 -11 22 -10 -4 13
-18 17 -23 26 -14 26 8 0 17 7 21 15 3 9 18 15 36 15 26 0 30 -4 30 -26 0 -14
9 -33 20 -42 14 -12 18 -24 14 -40 -7 -23 -7 -23 -28 -4 -39 35 -45 33 -24
-11 20 -40 24 -43 47 -37 14 4 25 12 24 19 -2 6 0 10 5 10 21 -4 28 3 27 24
-2 12 -7 21 -13 20 -8 -2 -8 4 0 22 6 14 17 25 23 25 16 0 29 64 15 68 -5 2
-10 15 -10 28 0 13 -5 24 -11 24 -10 0 -40 25 -97 81 -25 24 -29 25 -50 11
-29 -19 -73 -2 -106 40 l-23 30 -19 -46 c-12 -28 -24 -44 -31 -41 -30 11 -10
-6 22 -19 27 -12 35 -21 35 -40 0 -14 -4 -27 -9 -30 -5 -3 -6 -16 -3 -28 l6
-23 -30 20 c-34 22 -68 40 -107 54 -16 6 -25 16 -22 21 9 15 -21 23 -43 11
-14 -8 -24 -6 -38 4 -11 8 -29 15 -41 15 -23 0 -31 19 -25 63 3 20 10 27 27
27 24 0 129 -32 167 -50 21 -11 21 -10 -2 9 -14 12 -42 26 -62 33 -21 6 -38
14 -37 17 2 25 47 96 60 94 8 -2 29 19 47 47 19 30 38 48 44 44 8 -5 9 0 3 17
-4 13 -8 47 -9 74 -1 49 0 50 29 52 17 1 24 0 18 -3 -19 -9 -15 -27 4 -20 9 4
20 1 25 -6 5 -9 8 -4 8 15 0 17 5 27 15 27 11 0 12 -5 5 -26 -12 -30 -13 -74
-2 -74 4 0 22 24 40 53 18 28 48 62 67 75 54 34 41 43 -23 17 -77 -31 -215
-51 -262 -37 -35 10 -35 10 20 12 105 4 110 18 6 19 -94 1 -216 24 -216 41 0
4 53 10 118 13 64 3 140 13 167 21 l50 16 -60 -5 c-33 -3 -78 -8 -100 -10
l-40 -5 35 14 c41 16 31 22 -55 30 -108 11 -130 20 -67 28 20 3 58 14 82 25
25 11 56 23 70 27 30 7 77 42 69 50 -3 4 -33 10 -65 14 l-59 9 38 7 c20 5 37
10 37 11 0 15 -15 35 -26 35 -8 0 -14 4 -14 9 0 5 8 7 19 4 10 -3 22 0 25 6 5
7 -1 10 -16 8 -17 -1 -24 4 -26 21 l-3 22 38 -25 c20 -15 40 -30 43 -34 16
-24 45 -28 94 -14 28 8 61 17 74 20 12 3 29 18 37 33 23 45 56 45 70 -1z
m-385 1 c0 -5 -2 -10 -4 -10 -3 0 -8 5 -11 10 -3 6 -1 10 4 10 6 0 11 -4 11
-10z m587 -72 c-3 -7 -5 -2 -5 12 0 14 2 19 5 13 2 -7 2 -19 0 -25z m297 -54
c27 -26 19 -124 -9 -124 -23 0 -38 79 -24 118 10 26 13 27 33 6z m462 -39 c-3
-9 0 -15 9 -15 8 0 15 -3 15 -7 -1 -18 -77 -147 -89 -151 -20 -7 -9 52 23 117
14 30 23 58 20 62 -3 5 2 9 11 9 11 0 15 -5 11 -15z m34 5 c0 -5 -5 -10 -11
-10 -5 0 -7 5 -4 10 3 6 8 10 11 10 2 0 4 -4 4 -10z m430 -206 c0 -12 -66 -70
-92 -82 -32 -13 -35 -6 -10 23 36 42 102 80 102 59z m120 -4 c0 -5 -5 -10 -11
-10 -5 0 -7 5 -4 10 3 6 8 10 11 10 2 0 4 -4 4 -10z m30 -26 c0 -4 -8 -13 -17
-21 -17 -13 -16 -14 5 -8 12 4 22 3 22 -2 0 -11 -204 -202 -245 -230 -42 -28
-45 -28 -45 0 0 22 68 114 96 130 7 4 34 34 59 67 36 46 52 60 78 63 17 2 35
5 40 5 4 1 7 -1 7 -4z m-1223 -104 c12 -24 4 -39 -19 -40 -13 0 -28 38 -22 55
8 21 26 14 41 -15z m1583 -300 c0 -5 -4 -10 -10 -10 -5 0 -10 5 -10 10 0 6 5
10 10 10 6 0 10 -4 10 -10z m-1880 -139 c0 -17 -3 -18 -35 -8 -27 8 -45 8 -71
-2 -20 -7 -38 -10 -41 -7 -11 11 62 35 105 36 35 0 42 -3 42 -19z m1490 -110
c0 -11 -35 -21 -77 -21 -31 0 -49 11 -36 24 10 9 113 7 113 -3z m-169 -197
c48 -44 -4 -60 -72 -22 -40 22 -45 29 -31 42 12 13 82 -1 103 -20z m296 0 c-3
-3 -12 -4 -19 -1 -8 3 -5 6 6 6 11 1 17 -2 13 -5z m-187 -309 c0 -6 8 -15 19
-22 10 -6 21 -21 24 -32 8 -33 -23 -26 -65 15 -36 33 -45 53 -33 66 8 8 55
-15 55 -27z m-1970 -89 c-14 -13 -27 -22 -29 -20 -6 6 32 43 44 43 5 1 -2 -10
-15 -23z m845 -75 c3 -5 1 -12 -5 -16 -5 -3 -10 1 -10 9 0 18 6 21 15 7z m135
-6 c22 -27 -18 -331 -47 -352 -61 -46 -89 32 -61 169 11 54 11 59 -10 81 -37
40 -23 77 30 77 17 0 28 5 28 14 0 26 41 34 60 11z m454 -31 c8 -20 8 -79 0
-87 -22 -21 -55 50 -40 88 7 20 32 19 40 -1z m153 -89 c9 -19 13 -38 9 -42
-10 -10 -45 37 -46 60 0 28 19 19 37 -18z m-822 -52 c-3 -16 -10 -29 -15 -31
-5 -2 -7 -9 -4 -16 3 -7 -2 -19 -11 -26 -8 -7 -15 -19 -15 -26 0 -8 -4 -14
-10 -14 -5 0 -10 8 -10 17 0 24 32 106 44 115 21 15 28 8 21 -19z m-649 -28
c1 -14 -2 -22 -7 -19 -11 6 -12 44 -1 44 4 0 8 -11 8 -25z m87 18 c-7 -2 -19
-2 -25 0 -7 3 -2 5 12 5 14 0 19 -2 13 -5z m-193 -63 c0 -5 -4 -10 -10 -10 -5
0 -10 5 -10 10 0 6 5 10 10 10 6 0 10 -4 10 -10z m120 -4 c0 -2 -9 -6 -20 -9
-11 -3 -18 -1 -14 4 5 9 34 13 34 5z m1585 -53 c10 -40 -3 -40 -20 0 -19 45
-19 53 -1 38 8 -7 17 -23 21 -38z m-338 -68 c5 -47 3 -57 -8 -53 -7 2 -15 20
-16 39 -2 19 -5 40 -8 47 -2 6 -2 19 2 28 10 27 24 0 30 -61z m-317 -41 c0 -7
-8 -18 -17 -23 -13 -8 -15 -13 -6 -19 8 -5 9 -13 3 -22 -8 -13 -10 -12 -10 3
0 9 -4 17 -10 17 -11 0 -14 73 -3 83 8 9 43 -22 43 -39z m587 4 c-3 -8 -6 -5
-6 6 -1 11 2 17 5 13 3 -3 4 -12 1 -19z m-647 -29 c0 -24 -4 -38 -10 -34 -17
10 -11 75 7 75 2 0 3 -18 3 -41z m670 -4 c0 -8 -4 -15 -10 -15 -5 0 -7 7 -4
15 4 8 8 15 10 15 2 0 4 -7 4 -15z m27 -17 c-3 -8 -6 -5 -6 6 -1 11 2 17 5 13
3 -3 4 -12 1 -19z m-480 -20 c-3 -8 -6 -5 -6 6 -1 11 2 17 5 13 3 -3 4 -12 1
-19z m-204 -13 c-3 -9 -8 -14 -10 -11 -3 3 -2 9 2 15 9 16 15 13 8 -4z m-885
-164 c5 -32 -64 -151 -88 -151 -40 0 -14 98 42 157 25 27 42 25 46 -6z"/>
<path d="M1880 2942 c-14 -9 -26 -23 -28 -30 -1 -7 10 -4 28 9 16 13 30 26 30
31 0 11 -1 10 -30 -10z"/>
<path d="M1950 2945 c-14 -16 -3 -20 19 -6 8 5 9 11 3 15 -5 3 -15 -1 -22 -9z"/>
<path d="M1805 2910 c-13 -6 -15 -9 -5 -9 8 0 22 4 30 9 18 12 2 12 -25 0z"/>
<path d="M1914 2898 l-19 -23 23 19 c21 18 27 26 19 26 -2 0 -12 -10 -23 -22z"/>
<path d="M1805 2880 c-3 -5 -2 -10 4 -10 5 0 13 5 16 10 3 6 2 10 -4 10 -5 0
-13 -4 -16 -10z"/>
<path d="M1850 2870 c-13 -8 -13 -10 2 -10 9 0 20 5 23 10 8 13 -5 13 -25 0z"/>
<path d="M1780 2830 c20 -13 43 -13 35 0 -3 6 -16 10 -28 10 -18 0 -19 -2 -7
-10z"/>
<path d="M1811 2751 c-6 -4 -11 -14 -9 -21 2 -8 -3 -14 -11 -15 -8 0 -16 -6
-18 -12 -9 -26 27 -7 55 29 14 18 3 31 -17 19z"/>
<path d="M1405 2350 c3 -5 8 -10 11 -10 2 0 4 5 4 10 0 6 -5 10 -11 10 -5 0
-7 -4 -4 -10z"/>
<path d="M1600 2120 c6 -11 13 -20 16 -20 2 0 0 9 -6 20 -6 11 -13 20 -16 20
-2 0 0 -9 6 -20z"/>
<path d="M1511 2098 c0 -7 4 -22 9 -33 8 -18 9 -17 9 7 1 15 -3 30 -9 33 -5 3
-10 0 -9 -7z"/>
<path d="M1532 1995 c-2 -40 3 -58 25 -90 15 -22 35 -56 45 -75 9 -19 17 -28
18 -20 0 8 -13 35 -29 59 -23 34 -28 52 -25 80 5 36 5 36 -10 11 -14 -24 -15
-24 -18 30 l-4 55 -2 -50z"/>
<path d="M1760 1950 c0 -6 9 -33 21 -60 l21 -49 24 26 c13 14 24 32 24 39 0
17 -28 44 -45 44 -7 0 -20 3 -29 6 -9 3 -16 1 -16 -6z"/>
<path d="M1864 1840 c-12 -5 -14 -9 -6 -14 6 -4 24 0 39 8 24 13 25 15 6 13
-12 0 -29 -4 -39 -7z"/>
<path d="M1691 1801 c-1 -8 -9 -20 -18 -27 -15 -10 -21 -10 -38 4 -20 17 -20
17 -2 -5 15 -17 16 -26 8 -45 -10 -20 -10 -21 1 -4 7 11 24 30 36 42 13 13 22
29 19 36 -4 10 -6 10 -6 -1z"/>
<path d="M2140 1695 c0 -8 2 -15 4 -15 2 0 6 7 10 15 3 8 1 15 -4 15 -6 0 -10
-7 -10 -15z"/>
<path d="M1610 1685 c-7 -9 -8 -15 -2 -15 5 0 12 7 16 15 3 8 4 15 2 15 -2 0
-9 -7 -16 -15z"/>
<path d="M2440 1503 l0 -58 20 25 c28 36 24 90 -6 90 -10 0 -14 -15 -14 -57z"/>
<path d="M1835 1510 c-3 -5 -1 -10 4 -10 6 0 11 5 11 10 0 6 -2 10 -4 10 -3 0
-8 -4 -11 -10z"/>
<path d="M1795 1500 c3 -6 -1 -10 -9 -10 -9 0 -16 -5 -16 -10 0 -7 8 -7 23 1
30 16 30 16 12 23 -9 3 -13 2 -10 -4z"/>
<path d="M1485 1475 c17 -14 44 -32 62 -40 42 -20 138 -15 161 9 16 16 15 17
-13 10 -16 -4 -38 -11 -47 -15 -23 -12 -30 -11 -22 4 6 8 3 8 -9 -2 -22 -18
-55 -8 -102 29 -21 16 -43 30 -49 30 -6 -1 3 -12 19 -25z"/>
</g>
</svg>
